/* XPM */
static char *result[] = {
/* columns rows colors chars-per-pixel */
"24 24 119 2 ",
"   c black",
".  c #000001",
"X  c #010101",
"o  c #000102",
"O  c #010203",
"+  c gray1",
"@  c #040202",
"#  c #010305",
"$  c #040404",
"%  c #020608",
"&  c #03080B",
"*  c #030A0D",
"=  c #0E0E0E",
"-  c #040D12",
";  c #051117",
":  c #111111",
">  c gray7",
",  c #161616",
"<  c #081820",
"1  c #0A1E29",
"2  c #151E23",
"3  c #0D2B3A",
"4  c #0E2B3B",
"5  c #0F2E3F",
"6  c gray14",
"7  c #282828",
"8  c #592B1F",
"9  c #6F3627",
"0  c #713728",
"q  c #0F3041",
"w  c #103346",
"e  c #113649",
"r  c #143E55",
"t  c #15435B",
"y  c #174964",
"u  c #184A65",
"i  c #1B5472",
"p  c #1E5D7E",
"a  c gray33",
"s  c #575859",
"d  c gray35",
"f  c #596D77",
"g  c #536C7A",
"h  c #646464",
"j  c #6D6F6F",
"k  c #6F6F6F",
"l  c #747474",
"z  c #7B7B7B",
"x  c #A04D39",
"c  c #AC533D",
"v  c #E66F52",
"b  c #EE7355",
"n  c #F47656",
"m  c #F57757",
"M  c #F67757",
"N  c #F87858",
"B  c #F88061",
"V  c #F9896D",
"C  c #20668A",
"Z  c #21688D",
"A  c #2E6988",
"S  c #25739B",
"D  c #26769F",
"F  c #2779A4",
"G  c #687881",
"H  c #2B86B6",
"J  c #2C8CBE",
"K  c #3199CF",
"L  c #329ED6",
"P  c #35A5DF",
"I  c #36A9E5",
"U  c #39B2F1",
"Y  c #3CBCFF",
"T  c #4EA0CB",
"R  c #53C3FE",
"E  c #79CBF6",
"W  c #7FD1FD",
"Q  c gray54",
"!  c #8D8D8D",
"~  c #848D92",
"^  c gray58",
"/  c gray61",
"(  c #9F9F9F",
")  c #B6B6B6",
"_  c #B7B7B7",
"`  c #FA9F88",
"'  c #FBAB97",
"]  c #FBAD99",
"[  c #FBB4A3",
"{  c #CDCDCD",
"}  c #D0D0D0",
"|  c gray84",
" . c #D8D8D8",
".. c #FDCFC3",
"X. c #FEE4DE",
"o. c #D1E1E9",
"O. c #DEF0F9",
"+. c #E9E9E9",
"@. c gray93",
"#. c #FEECE8",
"$. c #F8EFED",
"%. c #F8F0EE",
"&. c #E1F1F9",
"*. c #EBF4F9",
"=. c #ECF4F8",
"-. c gray94",
";. c #F4F4F4",
":. c #FEF3F0",
">. c #F8F7F7",
",. c #F5F7F8",
"<. c #F6F7F8",
"1. c #F8F8F8",
"2. c #F9F9F9",
"3. c #FFFDFC",
"4. c #FFFEFD",
"5. c #FEFEFE",
"6. c #FFFEFE",
"7. c white",
"8. c None",
/* pixels */
"8.8.8.8.8.8.8.8.8.8.8.8.8.8.8.8.8.8.8.8.8.8.8.8.",
"8.8.8.8.8.8.8.8.8.            8.8.8.8.8.8.8.8.8.",
"8.8.8.8.8.8.8.    +.@.@.@.@./     8.8.8.8.8.8.8.",
"8.8.8.8.8.8.a | | 5.7.7.7.7.-.| | $ 8.8.8.8.8.8.",
"8.8.8.8.  l } :.` ` ` ` ` ` ` ' 7._ : 8.8.8.8.8.",
"8.8.8.8.  ! X.] N 0 b N N c x B [ 4.> 8.8.8.8.8.",
"8.8.8.8.  ! ..N N @ v N N 9 8 N N 3.> 8.8.8.8.8.",
"8.8.8.8.  ! ..N N @ v N N 9 8 N N 3.> 8.8.8.8.8.",
"8.8.8.8.  ! ..N N @ v N N 9 8 N N 3.> 8.8.8.8.8.",
"8.8.8.8.  ! 6.#.N n N N N M m V 3.7.> 8.8.8.8.8.",
"8.8.8.8.8.: h >.$.$.$.$.$.$.$.%.2., 8.8.8.8.8.8.",
"8.8.8.8.  z ^ 7 7 7 7 7 7 7 7 7 7 { : 8.8.8.8.8.",
"8.8.8.  Q  .( ; H H H H H H H D   ;.) 6 8.8.8.8.",
"8.8.  p f k g S Y Y Y Y Y Y Y U Z j k A 3 8.8.8.",
"8.8.  L C 1 4 F F F E W W T F F F O r I e 8.8.8.",
"8.8.  J P y & < < < o.&.&.G < < < . K P w 8.8.8.",
"8.8.8.      t Y Y Y Y Y Y Y Y Y Y #     8.8.8.8.",
"8.8.8.8.8.  s O.Y Y Y Y Y Y Y R ,.$ 8.8.8.8.8.8.",
"8.8.8.8.8.  d <.*.*.2 - - ~ *.=.1.$ 8.8.8.8.8.8.",
"8.8.8.8.8.  = 7 7 7 +     , 7 7 7 X 8.8.8.8.8.8.",
"8.8.8.8.    q H H H *     u H H H O   8.8.8.8.8.",
"8.8.8.8.    1 i i i %     5 i i i o     8.8.8.8.",
"8.8.8.                                  8.8.8.8.",
"8.8.8.8.                              8.8.8.8.8."
};
