/* XPM */
static char *result[] = {
/* columns rows colors chars-per-pixel */
"24 24 117 2 ",
"   c black",
".  c #010101",
"X  c #010202",
"o  c #010304",
"O  c #070707",
"+  c #040B0F",
"@  c #090909",
"#  c #0B0B0B",
"$  c #120906",
"%  c #040D12",
"&  c #050F14",
"*  c #051117",
"=  c #06131A",
"-  c #111111",
";  c #121211",
":  c #111212",
">  c #161616",
",  c gray12",
"<  c #28130E",
"1  c #281D1A",
"2  c #391B14",
"3  c #081820",
"4  c #0E2B3B",
"5  c gray15",
"6  c #282828",
"7  c gray16",
"8  c #2F2F2F",
"9  c #3E2C27",
"0  c #293237",
"q  c #29373E",
"w  c gray24",
"e  c #6F3627",
"r  c #113649",
"t  c #12384C",
"y  c #1B5472",
"u  c #1C5675",
"i  c #3F5967",
"p  c gray25",
"a  c gray28",
"s  c #434F55",
"d  c #5B5B5B",
"f  c #6F5751",
"g  c #4C6C7C",
"h  c #536C7A",
"j  c #83402E",
"k  c #85402F",
"l  c #894231",
"z  c #AE543E",
"x  c #B1563F",
"c  c #CB6248",
"v  c #D1654A",
"b  c #D9694D",
"n  c #E66F52",
"m  c #E77052",
"M  c #F47656",
"N  c #F47657",
"B  c #F67757",
"V  c #F77758",
"C  c #F77858",
"Z  c #F87858",
"A  c #F87A5B",
"S  c #F87C5D",
"D  c #F88164",
"F  c #20668A",
"G  c #21688D",
"H  c #226A8F",
"J  c #226B92",
"K  c #25739B",
"L  c #2576A0",
"P  c #2779A4",
"I  c #2980AE",
"U  c #2B86B6",
"Y  c #329ED6",
"T  c #3CBCFF",
"R  c #60B2DD",
"E  c #49C0FF",
"W  c #53C3FE",
"Q  c #71C3EE",
"!  c #7FD1FD",
"~  c #878889",
"^  c #848D92",
"/  c gray61",
"(  c #9D9D9D",
")  c #9F9F9F",
"_  c #93A3AB",
"`  c #A6A8AA",
"'  c #A9A9A9",
"]  c #B1B1B1",
"[  c #BBB4B3",
"{  c #B9B9B9",
"}  c #BBBBBB",
"|  c gray75",
" . c #FA9F88",
".. c #FAA590",
"X. c #FBB09D",
"o. c #FBB6A4",
"O. c #BECED6",
"+. c #D0D0D0",
"@. c gray84",
"#. c #DBD2D0",
"$. c gainsboro",
"%. c gray93",
"&. c #F8EFED",
"*. c #F8F0ED",
"=. c #E1F1F9",
"-. c #EBF4F9",
";. c #ECF4F8",
":. c gray94",
">. c #FEF3F0",
",. c #F5F7F8",
"<. c #F8F8F8",
"1. c #F9F9F9",
"2. c gray98",
"3. c gray99",
"4. c #FFFDFC",
"5. c white",
"6. c None",
/* pixels */
"6.6.6.6.6.6.6.6.6.6.6.6.6.6.6.6.6.6.6.6.6.6.6.6.",
"6.6.6.6.6.      6.6.            6.6.6.6.6.6.6.6.",
"6.6.6.6.  j n c     $.%.%.%.%.+.    6.6.6.6.6.6.",
"6.6.6.6.  l z 9 @.@.3.5.5.5.5.2.@.@.- 6.6.6.6.6.",
"6.6.6.6.6.2 f | 5.5... . . . . . . .[ 5 6.6.6.6.",
"6.6.6.6.6.  d 5.5.o.S k v Z Z m e B X.1 6.6.6.6.",
"6.6.6.6.6.  d 5.5.A Z < x Z Z b   M Z < 6.6.6.6.",
"6.6.6.6.6.  d 5.5.A Z < x Z Z b   M Z < 6.6.6.6.",
"6.6.6.6.6.  d 5.5.A Z < x Z Z b   M Z < 6.6.6.6.",
"6.6.6.6.6.  d 5.5.4.D N V Z Z C M Z >.7 6.6.6.6.",
"6.6.6.6.    O 8 1.1.*.&.&.&.&.#.$ $ ; 6.6.6.6.6.",
"6.6.6.  / +.+.} 6 6 6 6 6 6 6 q Y Y +   6.6.6.6.",
"6.6.  L i ' { s U U U U U U u 3 T t ` ] p 6.6.6.",
"6.6.  Y I g h K T T T T T T Y F y ~ :.<.a 6.6.6.",
"6.6.  J P r 4 P P P P Q ! ! R H   ( ) ) w 6.6.6.",
"6.6.6.        o 3 3 3 O.=.=._ 3 3 3 X   6.6.6.6.",
"6.6.6.6.6.6.6.3 T T T T T T T T T T % 6.6.6.6.6.",
"6.6.6.6.6.6.6., ,.,.E T T T T W ,.,.: 6.6.6.6.6.",
"6.6.6.6.6.6.6., <.<.;.0 % ^ -.;.<.> 6.6.6.6.6.6.",
"6.6.6.6.6.6.6., <.<.<.6   > 6 6 6 . 6.6.6.6.6.6.",
"6.6.6.6.6.6.  @ a a a #                 6.6.6.6.",
"6.6.6.6.6.    % G G G *                   6.6.6.",
"6.6.6.6.6.    & P P P =                   6.6.6.",
"6.6.6.6.6.                              6.6.6.6."
};
