/* XPM */
static char *result[] = {
/* columns rows colors chars-per-pixel */
"24 24 120 2 ",
"   c black",
".  c #010203",
"X  c gray1",
"o  c gray2",
"O  c #0E0E0E",
"+  c #110806",
"@  c #120906",
"#  c #120D0C",
"$  c #1E0E0A",
"%  c #1F0F0B",
"&  c #040D12",
"*  c #050F14",
"=  c #07151C",
"-  c #111111",
";  c gray7",
":  c #28130E",
">  c #081820",
",  c #151E23",
"<  c #0E2E3F",
"1  c #202020",
"2  c gray15",
"3  c #2F2523",
"4  c #282828",
"5  c gray20",
"6  c gray24",
"7  c #3E3E3E",
"8  c #49251C",
"9  c #0F2F41",
"0  c #113649",
"q  c #184A65",
"w  c #1C5675",
"e  c #1C5776",
"r  c #1D5B7C",
"t  c gray28",
"y  c #46565E",
"u  c gray33",
"i  c #596D77",
"p  c #646464",
"a  c gray40",
"s  c #6D6F6F",
"d  c gray43",
"f  c #7E7E7E",
"g  c #803E2D",
"h  c #85402F",
"j  c #9F4D39",
"k  c #B1563F",
"l  c #C76047",
"z  c #D1654A",
"x  c #E66F52",
"c  c #F47657",
"v  c #F67757",
"b  c #F77758",
"n  c #F87858",
"m  c #B38174",
"M  c #F99379",
"N  c #20668A",
"B  c #27698B",
"V  c #21688D",
"C  c #226A8F",
"Z  c #247098",
"A  c #2779A4",
"S  c #2F7CA4",
"D  c #2E7EA8",
"F  c #627681",
"G  c #2A84B3",
"H  c #2B86B6",
"J  c #4092BD",
"K  c #318FC0",
"L  c #329ED6",
"P  c #35A5DF",
"I  c #38AFED",
"U  c #39B2F1",
"Y  c #3CBBFD",
"T  c #3CBCFF",
"R  c #7ED0FB",
"E  c #7FD1FD",
"W  c #878989",
"Q  c #8D8D8D",
"!  c #8E8E8E",
"~  c gray61",
"^  c #9F9F9F",
"/  c #A9B2B7",
"(  c #B1B1B1",
")  c #B6B4B4",
"_  c #B6B6B6",
"`  c #BBBBBB",
"'  c #FA9981",
"]  c #FA9F88",
"[  c #DCA99C",
"{  c #FBA894",
"}  c #C0BEBD",
"|  c #FBB3A1",
" . c #FCC1B3",
".. c #A2DDFB",
"X. c #D0D0D0",
"o. c gray84",
"O. c #D6D8D9",
"+. c gray85",
"@. c gray86",
"#. c gainsboro",
"$. c #FDCFC4",
"%. c #FDD4CA",
"&. c #DDEDF5",
"*. c #DEF0F9",
"=. c gray91",
"-. c gray93",
";. c #F8EFED",
":. c #E1F1F9",
">. c #EBF4F9",
",. c gray96",
"<. c #F6F6F6",
"1. c #F8F4F3",
"2. c #F2F6F8",
"3. c #F5F7F8",
"4. c #F6F7F8",
"5. c #F8F8F8",
"6. c #F9F9F9",
"7. c #FFFDFD",
"8. c white",
"9. c None",
/* pixels */
"9.9.9.9.9.9.9.9.9.9.9.9.9.9.9.9.9.9.9.9.9.9.9.9.",
"9.9.9.9.9.9.9.9.          9.9.9.    9.9.9.9.9.9.",
"9.9.9.9.9.    1 -.-.-.-.-.d   $ x x + 9.9.9.9.9.",
"9.9.9.9.  f o.@.8.8.8.8.8.=.o.} : c @ 9.9.9.9.9.",
"9.9.9.  Q [ ] ] ] ] ] ] ] %.8.<._ 8 9.9.9.9.9.9.",
"9.9.9.  m M l g n n n h z ' $.8.8.o 9.9.9.9.9.9.",
"9.9.9.  k n j % n n n : k n { 8.8.o 9.9.9.9.9.9.",
"9.9.9.  k n j % n n n : k n { 8.8.o 9.9.9.9.9.9.",
"9.9.9.  k n j % n n n : k n { 8.8.o 9.9.9.9.9.9.",
"9.9.9.  ) | v c n n n c b  .7.8.8.o 9.9.9.9.9.9.",
"9.9.9.9.- # @ 3 ;.;.;.;.;.1.6.#.;     9.9.9.9.9.",
"9.9.9.    e L K 4 4 4 4 4 4 4 6 X.X.X.2 9.9.9.9.",
"9.9.  ~ ( i N P   G H H H H H D t ,.u S 9 9.9.9.",
"9.9.  X.5.` F w V Y T T T T T U V s B I 0 9.9.9.",
"9.9.  ! ^ ^ a * A R E E J A A A A . Z A < 9.9.9.",
"9.9.9.    & > > > &.:.:.y > > =         9.9.9.9.",
"9.9.9.9.  V T T T T T T T T T P   9.9.9.9.9.9.9.",
"9.9.9.9.  W 3.*.T T T T T ..3.O.  9.9.9.9.9.9.9.",
"9.9.9.9.9.- p 4.>.>., & / 2.5.+.  9.9.9.9.9.9.9.",
"9.9.9.9.9.  O 4 4 4 X   ( 5.5.+.  9.9.9.9.9.9.9.",
"9.9.9.                  5 t t 7     9.9.9.9.9.9.",
"9.9.                    q V V r       9.9.9.9.9.",
"9.9.                    w A A C       9.9.9.9.9.",
"9.9.9.                              9.9.9.9.9.9."
};
