/* XPM */
static char *result[] = {
/* columns rows colors chars-per-pixel */
"24 24 71 1 ",
"  c black",
". c #020507",
"X c #07151C",
"o c #081A23",
"O c #091D26",
"+ c #091E28",
"@ c #0A1F2B",
"# c #14232A",
"$ c #0C2532",
"% c #0D2A39",
"& c #222222",
"* c #272727",
"= c gray16",
"- c #373737",
"; c #103649",
": c #12394E",
"> c #133A4F",
", c #183B4E",
"< c #143F55",
"1 c #2B3D46",
"2 c #2C424D",
"3 c #294554",
"4 c #174963",
"5 c #1B5471",
"6 c #255771",
"7 c #535353",
"8 c #4C5A61",
"9 c #446170",
"0 c gray43",
"q c #21688E",
"w c #226E96",
"e c #25739C",
"r c #287DAA",
"t c #2A83B1",
"y c #2B86B5",
"u c #2B88B8",
"i c #3189B8",
"p c #75838B",
"a c #528BA8",
"s c #2F92C6",
"d c #329DD5",
"f c #34A2DC",
"g c #39A4DB",
"h c #35A7E3",
"j c #39B2F1",
"k c #3AB7F8",
"l c #3CBCFF",
"z c #4EAADB",
"x c #66ADD3",
"c c #40AAE2",
"v c #4EB8F0",
"b c #46BFFF",
"n c #6AB8E1",
"m c #5BC6FE",
"M c #70CDFD",
"N c #7BD0FD",
"B c gray54",
"V c #8D9498",
"C c #A5A5A5",
"Z c #ACACAC",
"A c gray70",
"S c #A4DDFB",
"D c #C1C1C1",
"F c gray81",
"G c #CEEBFA",
"H c #D9EEF9",
"J c #DEF0F9",
"K c #EAEAEA",
"L c #F3F6F8",
"P c #F8F8F8",
"I c None",
/* pixels */
"III IIIIIIIIIIIIIII  III",
"I >d+ IIIIIIIIIIII yw II",
"I <l5;IIIIIIIIIII$<hr II",
"I <llr   IIIIII  <llr II",
"III@fjddw     >ddhl:OIII",
"III dllls<<<<<qllll@ III",
"III dllllllllllllll@ III",
"IIII+@@fllllllll:@@IIIII",
"IIII X<nNNbllMNN6% IIIII",
"III  <lHPPmllHPPmr   III",
"I >do<lHA=gll20Pmr tw II",
"I <l@<lHC dll@7Pmr dr II",
"I <l@<lHC dll@7Pmr dr II",
" thlfe@zvdkllfcm,4dkjdo ",
" dllMa qslurrjhrX3Nbll@ ",
" dllHC  <l@  dr  7Pmll@ ",
" dMHLC ZV@.  o8F&7PJSl@ ",
" xSPA0 FD77777BP=-CKGN# ",
" FPP=  FPPPPPPPP=  FPP= ",
"I*==idd10PPPPPA=idd1==II",
"I   wsl59CCCCCp<hhrO  II",
"IIII <llr     <llr IIIII",
"IIIIII@@OIIIIII@@OIIIIII",
"IIIIII   IIIIII   IIIIII"
};
