/* XPM */
static char *result[] = {
/* columns rows colors chars-per-pixel */
"24 24 73 1 ",
"  c black",
". c #07151C",
"X c #081A23",
"o c #091D26",
"O c #091E28",
"+ c #0A1F2B",
"@ c #0F212A",
"# c #0C2532",
"$ c #0D2A39",
"% c #222222",
"& c #272727",
"* c #24282A",
"= c gray16",
"- c #373737",
"; c #113447",
": c #103649",
"> c #12394E",
", c #133A4F",
"< c #183B4E",
"1 c #143F55",
"2 c #2B3D46",
"3 c #2C424D",
"4 c #174963",
"5 c #1B5471",
"6 c #255771",
"7 c #464646",
"8 c #535353",
"9 c #4C5A61",
"0 c #446170",
"q c gray43",
"w c #7B7B7B",
"e c #21688E",
"r c #226E96",
"t c #25739C",
"y c #287DAA",
"u c #2A83B1",
"i c #2B86B5",
"p c #2B88B8",
"a c #3189B8",
"s c #75838B",
"d c #2F92C6",
"f c #329DD5",
"g c #34A2DC",
"h c #39A4DB",
"j c #35A7E3",
"k c #39B2F1",
"l c #3AB7F8",
"z c #3CBCFF",
"x c #4EAADB",
"c c #40AAE2",
"v c #4EB8F0",
"b c #46BFFF",
"n c #6AB8E1",
"m c #5BC6FE",
"M c #70CDFD",
"N c #7BD0FD",
"B c gray54",
"V c #8D9498",
"C c #A5A5A5",
"Z c #ACACAC",
"A c gray70",
"S c #B5C6D0",
"D c #A1D3ED",
"F c #B9E4FA",
"G c #C1C1C1",
"H c gray81",
"J c gray84",
"K c #D9EEF9",
"L c #E3F1F9",
"P c #EEF5F8",
"I c #F1F1F1",
"U c #F8F8F8",
"Y c None",
/* pixels */
"YYY YYYYYYYYYYYYYYY  YYY",
"Y ,fO YYYYYYYYYYYY ir YY",
"Y 1z5:YYYYYYYYYYY#1jy YY",
"Y 1zzy   YYYYYY  1zzy YY",
" ut+gkffe     ;ffjz>4fX ",
" fy fzzzd11111ezzzz+1z+ ",
" fy fzzzzzzzzzzzzzz+1z+ ",
" SDf;++gzzzzzzzz>++pnK* ",
" HFz+.1nNNbzzMNN6$ fNU= ",
" HFz+1zKUUmzzKUUmy fNU= ",
" HPK*1zKA=hzz3qUmy SLU= ",
" HUU=1zKC fzz+8Umy HUU= ",
" HUU=1zKC fzz+8Umy HUU= ",
" HUUJV+xvflzzgcm<9HIUU= ",
" HUUUC edzMNNbjy.8UUUU= ",
" HUUUC  1zKUUmy  8UUUU= ",
"Y&qUUC ZV+*==@9H%8UUA=YY",
"Y 7CCq HG88888BU=-CCw YY",
"YYY    HUUUUUUUU=    YYY",
"YYY uff2qUUUUUA=affX YYY",
"YYY rdz50CCCCCs1jjyoYYYY",
"YYYY 1zzy     1zzy YYYYY",
"YYYYYY++oYYYYYY++oYYYYYY",
"YYYYYY   YYYYYY   YYYYYY"
};
