/* XPM */
static char *result[] = {
/* columns rows colors chars-per-pixel */
"24 24 60 1 ",
"  c black",
". c #020507",
"X c #07151C",
"o c #081A23",
"O c #091D26",
"+ c #091E28",
"@ c #0A1F2B",
"# c #0C2532",
"$ c #0D2A39",
"% c #222222",
"& c gray16",
"* c #103649",
"= c #12394E",
"- c #133A4F",
"; c #183B4E",
": c #143F55",
"> c #2B3D46",
", c #2C424D",
"< c #174963",
"1 c #1B5471",
"2 c #255771",
"3 c #535353",
"4 c #4C5A61",
"5 c #446170",
"6 c gray43",
"7 c #21688E",
"8 c #226E96",
"9 c #25739C",
"0 c #287DAA",
"q c #2A83B1",
"w c #2B86B5",
"e c #2B88B8",
"r c #3189B8",
"t c #75838B",
"y c #2F92C6",
"u c #329DD5",
"i c #34A2DC",
"p c #39A4DB",
"a c #35A7E3",
"s c #39B2F1",
"d c #3AB7F8",
"f c #3CBCFF",
"g c #4EAADB",
"h c #40AAE2",
"j c #4EB8F0",
"k c #46BFFF",
"l c #6AB8E1",
"z c #5BC6FE",
"x c #70CDFD",
"c c #7BD0FD",
"v c gray54",
"b c #8D9498",
"n c #A5A5A5",
"m c #ACACAC",
"M c gray70",
"N c #C1C1C1",
"B c gray81",
"V c #D9EEF9",
"C c #F8F8F8",
"Z c None",
/* pixels */
"ZZZ ZZZZZZZZZZZZZZZ  ZZZ",
"Z -u+ ZZZZZZZZZZZZ w8 ZZ",
"Z :f1*ZZZZZZZZZZZ#:a0 ZZ",
"Z :ff0   ZZZZZZ  :ff0 ZZ",
"ZZZ@isuu8     -uuaf=OZZZ",
"ZZZ ufffy:::::7ffff@ ZZZ",
"ZZZ uffffffffffffff@ ZZZ",
"ZZZZ+@@iffffffff=@@ZZZZZ",
"ZZZZ X:lcckffxcc2$ ZZZZZ",
"ZZZZ :fVCCzffVCCz0 ZZZZZ",
"ZZZZ :fVM&pff,6Cz0 ZZZZZ",
"ZZZZ :fVn uff@3Cz0 ZZZZZ",
"ZZZ  :fVn uff@3Cz0   ZZZ",
"Z -uu9@gjudffihz;<uu8 ZZ",
"Z :ff0 7yfe00sa0X:ff0 ZZ",
"Z :ff0  :f@  u0  :ff0 ZZ",
" qaff0 mb@.  o4B%:ffsuo ",
" ufff0 BN33333vC&:ffff@ ",
" ufff0 BCCCCCCCC&:ffff@ ",
" uff=<u>6CCCCCM&r9@iff@ ",
" uff@:f15nnnnnt:a0 uff@ ",
" uff@:ff0     :ff0 uff@ ",
"Z+@@ZZ@@OZZZZZZ@@OZ+@@ZZ",
"Z   ZZ   ZZZZZZ   Z   ZZ"
};
