/* XPM */
static char *result[] = {
/* columns rows colors chars-per-pixel */
"24 24 30 1 ",
"  c black",
". c #081A23",
"X c #091D26",
"o c #091E28",
"O c #0A1F2B",
"+ c #0C2532",
"@ c #113447",
"# c #103649",
"$ c #12394E",
"% c #133A4F",
"& c #143F55",
"* c #174963",
"= c #1B5471",
"- c #1E5E7E",
"; c #21688E",
": c #226E96",
"> c #25739C",
", c #277CA9",
"< c #287DAA",
"1 c #2A83B1",
"2 c #2B86B5",
"3 c #2B88B8",
"4 c #2F92C6",
"5 c #329DD5",
"6 c #34A2DC",
"7 c #35A7E3",
"8 c #39B2F1",
"9 c #39B5F6",
"0 c #3CBCFF",
"q c None",
/* pixels */
"qqq qqqqqqqqqqqqqqq  qqq",
"q %5o qqqqqqqqqqqq 2: qq",
"q &0=#qqqqqqqqqqq+&7< qq",
"q &00<   qqqqqq  &00< qq",
"qqqO6855:     %5570$Xqqq",
"qqq 50004&&&&&;0000O qqq",
"qqq 500000000000000O qqq",
"qqq .=000000000003Oqqqqq",
"qqq  &007<<<<<400< qqqqq",
"qqq  &00<     &00< qqqqq",
"q %55>OO*55555>OO*59, qq",
"q@;004&&;000004&&;004&qq",
" 500000000000000000000O ",
" 500000000000000000000O ",
" 500000000000000000000O ",
" 500000000000000000000O ",
"qo=000000000000000003Oqq",
"q #<<<<8000000003<<<- qq",
"qqq    500000000O    qqq",
"qqq 155@=000003O355. qqq",
"qqq :40==<<<<<;&77<Xqqqq",
"qqqq &00<     &00< qqqqq",
"qqqqqqOOXqqqqqqOOXqqqqqq",
"qqqqqq   qqqqqq   qqqqqq"
};
