/* XPM */
static char *result[] = {
/* columns rows colors chars-per-pixel */
"24 24 29 1 ",
"  c black",
". c #081A23",
"X c #091D26",
"o c #091E28",
"O c #0A1F2B",
"+ c #0C2532",
"@ c #0D2A39",
"# c #113447",
"$ c #103649",
"% c #12394E",
"& c #133A4F",
"* c #143F55",
"= c #174963",
"- c #1B5471",
"; c #21688E",
": c #226E96",
"> c #25739C",
", c #287DAA",
"< c #2A83B1",
"1 c #2B86B5",
"2 c #2B88B8",
"3 c #2F92C6",
"4 c #329DD5",
"5 c #34A2DC",
"6 c #35A7E3",
"7 c #39B2F1",
"8 c #3AB7F8",
"9 c #3CBCFF",
"0 c None",
/* pixels */
"000 000000000000000  000",
"0 &4o 000000000000 1: 00",
"0 *9-$00000000000+*6, 00",
"0 *99,   000000  *99, 00",
" <>O5744;     #4469%=4. ",
" 4, 49993*****;9999O*9O ",
" 4, 499999999999999O*9O ",
" 474#-999999999992O269O ",
" 499O*996,,,,,399, 499O ",
" 499O*99,     *99, 499O ",
" 4995>OO=44444>OO=4899O ",
" 49993**;999993**;9999O ",
" 499999999999999999999O ",
"0o-999999999999999992O00",
"0 *99999999999999999, 00",
"0 *99999999999999999, 00",
"000OO-999999999992OOX000",
"000  @,7999999992-  0000",
"0000   499999999O  00000",
"000 144#-999992O244o 000",
"000 :39--,,,,,;*66,X0000",
"0000 *99,     *99, 00000",
"000000OOX000000OOX000000",
"000000   000000   000000"
};
