/* XPM */
static char *result[] = {
/* columns rows colors chars-per-pixel */
"24 24 30 1 ",
"  c black",
". c #030A0E",
"X c #07151C",
"o c #081A23",
"O c #091D26",
"+ c #091E28",
"@ c #0A1F2B",
"# c #0C2532",
"$ c #113447",
"% c #103649",
"& c #12394E",
"* c #133A4F",
"= c #143F55",
"- c #174963",
"; c #1B5471",
": c #21688E",
"> c #226E96",
", c #25739C",
"< c #287DAA",
"1 c #2A83B1",
"2 c #2B86B5",
"3 c #2B88B8",
"4 c #2F92C6",
"5 c #329DD5",
"6 c #34A2DC",
"7 c #35A7E3",
"8 c #39B2F1",
"9 c #3AB7F8",
"0 c #3CBCFF",
"q c None",
/* pixels */
"qqq qqqqqqqqqqqqqqq  qqq",
"q *5+ qqqqqqqqqqqq 2> qq",
"q =0;%qqqqqqqqqqq#=7< qq",
"q =00<   qqqqqq  =00< qq",
"qqq@6855>     *5570&Oqqq",
"qqq 50004=====:0000@ qqq",
"qqq 500000000000000@ qqq",
"qqqq+;000000000003@qqqqq",
"qqqq =007<<<<<400< qqqqq",
"qqqq =00<     =00< qqqqq",
"qqqq .@@-55555,@@X qqqqq",
"qqqq*===:000004====qqqqq",
"qqq 500000000000000@ qqq",
"q *59000000000000006> qq",
"q =00000000000000000< qq",
"q =00000000000000000< qq",
" 170000000000000000085o ",
" 50007<800000000340000@ ",
" 5000< 500000000@=0000@ ",
" 500&-5$;000003@3,@600@ ",
" 57<X=0;;<<<<<:=7< :40@ ",
" 5<  =00<     =00<  =0@ ",
"q+Oqqq@@Oqqqqqq@@Oqqq@qq",
"q  qqq   qqqqqq   qqq qq"
};
