/* XPM */
static char *result[] = {
/* columns rows colors chars-per-pixel */
"24 24 171 2 ",
"   c #1A0E0E",
".  c #14130D",
"X  c #19140C",
"o  c #0F1515",
"O  c #141414",
"+  c #1C1710",
"@  c #171916",
"#  c #191916",
"$  c #13121B",
"%  c #1C1C18",
"&  c #2E1B0F",
"*  c #341A0C",
"=  c #2E1A11",
"-  c #241F19",
";  c #311910",
":  c #1F221E",
">  c #21221C",
",  c #29261D",
"<  c #29281D",
"1  c #272722",
"2  c #282622",
"3  c #272820",
"4  c #2C2B24",
"5  c #392F26",
"6  c #313026",
"7  c #393426",
"8  c #36342A",
"9  c #3A362C",
"0  c #393731",
"q  c #3A3833",
"w  c #5D371B",
"e  c #52321A",
"r  c #653D19",
"t  c #713E1C",
"y  c #443F36",
"u  c #763D24",
"i  c #72421D",
"p  c #454036",
"a  c #4E4335",
"s  c #4B463A",
"d  c #504739",
"f  c #554B3C",
"g  c #5A4E3B",
"h  c #524935",
"j  c #6A4324",
"k  c #654827",
"l  c #6B442A",
"z  c #774B24",
"x  c #7E4B21",
"c  c #754D2A",
"v  c #7F5127",
"b  c #7A552F",
"n  c #7A5B2D",
"m  c #664E31",
"M  c #614C39",
"N  c #6A4E38",
"B  c #6C5233",
"V  c #63533C",
"C  c #6B503F",
"Z  c #745435",
"A  c #7C5936",
"S  c #74563A",
"D  c #705C3D",
"F  c #7A5A3A",
"G  c #4E4846",
"H  c #534D42",
"J  c #5B5142",
"K  c #565349",
"L  c #5C574C",
"P  c #645542",
"I  c #6D5744",
"U  c #6B5943",
"Y  c #635B4C",
"T  c #725C44",
"R  c #665D58",
"E  c #7D6341",
"W  c #73614A",
"Q  c #7A654A",
"!  c #626057",
"~  c #6F6250",
"^  c #6C665A",
"/  c #7C6C56",
"(  c #796E5C",
")  c #6C6661",
"_  c #716660",
"`  c #796E65",
"'  c #767060",
"]  c #7C7466",
"[  c #814827",
"{  c #865327",
"}  c #8A5524",
"|  c #8C5825",
" . c #88542A",
".. c #875A2C",
"X. c #8A592F",
"o. c #87542C",
"O. c #835533",
"+. c #835B33",
"@. c #8A5931",
"#. c #825C3C",
"$. c #97632E",
"%. c #956431",
"&. c #946139",
"*. c #94683E",
"=. c #A36E3E",
"-. c #A4713C",
";. c #816243",
":. c #806449",
">. c #836A4D",
",. c #8A6D4B",
"<. c #846844",
"1. c #946B45",
"2. c #9B6C44",
"3. c #946D4B",
"4. c #8F714C",
"5. c #907045",
"6. c #9F734B",
"7. c #806D53",
"8. c #8C6E53",
"9. c #827156",
"0. c #897055",
"q. c #8B7359",
"w. c #8D795E",
"e. c #82735C",
"r. c #947553",
"t. c #997250",
"y. c #9E7B52",
"u. c #937A5A",
"i. c #A46D41",
"p. c #A37144",
"a. c #A1774D",
"s. c #A2784E",
"d. c #AC7B4C",
"f. c #A37B52",
"g. c #AC7E53",
"h. c #AA7C5A",
"j. c #937860",
"k. c #917E6B",
"l. c #857C73",
"z. c #887E7B",
"x. c #A77A60",
"c. c #9D815A",
"v. c #A5814C",
"b. c #A3815C",
"n. c #9E856B",
"m. c #958565",
"M. c #8E8E7E",
"N. c #848272",
"B. c #93877A",
"V. c #998779",
"C. c #958E7F",
"Z. c #AF8F64",
"A. c #AA8E6A",
"S. c #B38761",
"D. c #B09367",
"F. c #B2986E",
"G. c #A38E77",
"H. c #988A81",
"J. c #999082",
"K. c #A89D8E",
"L. c #ADA898",
"P. c #ABADAF",
"I. c #BDB3A0",
"U. c #B2B1AE",
"Y. c #C5BEB0",
"T. c #D6C1A6",
"R. c #D1C8B4",
"E. c #D2C3B2",
"W. c #E1CCBF",
"Q. c #E9E6E0",
"!. c #E8E8E7",
/* pixels */
"D k l l l j j j j j j j j j j j j j l l l l l G.",
"b d.O.t  .{ } { { { { } { { { { { { { &.t 1.h.S ",
"z =.1.[ d.v.f.d.d.d.d.d.g.d.d.d.d.d.d.S.i } d.E ",
"z =.3.u O.n A A A Z S S Z B B B B B B N r } d.E ",
"z -.,.h.t.Z.S.e./ V f 8 , - - X X X X X * ..v.#.",
"z -.5.u.A.D.F.u.w.U J 9 2 > % # O @ O $ ; X.d.<.",
"z -.u.R.I n.m.9./ V f 9 2 > % + . . O $ ; @.d.#.",
"z -.k.!.z.W.Y.L.J.] K 0 1 : % # O o . O * X.g.#.",
"z -.9.P.^ G.M.N.' Y H 9 , > % # O O O $ & X.d.E ",
"z =.0.H.U E Q W U g s 9 , > % # O O O O & X.d.E ",
"z i.F e #.g.b.4.Q V f 9 2 > % @ O O O O & X.d.E ",
"z =.3.1.p.f.c.,.>.V d 8 1 > % @ O O . $ & X.d.E ",
"z i.2.%.=.c.c.Q W g L p 2 > % # O O O $ & X.d.E ",
"z -.3.%.=.f.#.U ( ^ ! G 4 > % # O O O O & ..d.E ",
"x -.3.%.=.6.A I ~ ^ L q 6 > % @ O O O $ & X.d.E ",
"z -.2.$.-.s.4.D V L H y 4 > % @ O O . O & X.d.E ",
"z -.3.%.p.y.y.8.T g p 7 , > % @ O O . $ & X.d.E ",
"z =.3.@.1.f.6.,.Q V d 9 < > % @ @ O O $ & X.d.E ",
"i p.u.Y.S r.r.>.Q V a 8 < > % # O O . O & X.d.E ",
"v p.m.Q.l.E.I.K.B.` H 0 2 > % # O O . O & | d.E ",
"z 2.' U.) H.H.l.` R G q 2 > # # O O . O & X.d.E ",
"z p.q.V.I 9.e.( T J s 8 < > % @ O $ . $ & X.d.E ",
"z i.A w c 6.r.>.E V h 7 < : % @ O O . o * @.g.T ",
"r [ c Z O.1.5.Q T m y 5 , : # @ O . O O = i [ B "
};
