/* XPM */
static char *result[] = {
/* columns rows colors chars-per-pixel */
"24 24 127 2 ",
"   c #16120E",
".  c #1A100D",
"X  c #141414",
"o  c #1A1513",
"O  c #1B1814",
"+  c #1F1E1A",
"@  c #241A14",
"#  c #281910",
"$  c #211D1A",
"%  c #24231E",
"&  c #29231D",
"*  c #3D2B17",
"=  c #3C2B19",
"-  c #2B2A23",
";  c #34342B",
":  c #383128",
">  c #3D3C32",
",  c #473017",
"<  c #4E3015",
"1  c #43321C",
"2  c #4C341B",
"3  c #50351D",
"4  c #5A3619",
"5  c #663E14",
"6  c #713E1A",
"7  c #403320",
"8  c #4F3C25",
"9  c #443D2F",
"0  c #593B23",
"q  c #413D32",
"w  c #483930",
"e  c #754017",
"r  c #70431F",
"t  c #794C1D",
"y  c #474536",
"u  c #484437",
"i  c #464539",
"p  c #484539",
"a  c #4E4C3E",
"s  c #504335",
"d  c #514C3D",
"f  c #594B3E",
"g  c #54513F",
"h  c #6B4525",
"j  c #644629",
"k  c #6C452A",
"l  c #764622",
"z  c #764D22",
"x  c #7C4B20",
"c  c #7A4E2D",
"v  c #7F522D",
"b  c #6B4E33",
"n  c #754F30",
"m  c #6B5135",
"M  c #715637",
"N  c #7B5535",
"B  c #76563A",
"V  c #79573B",
"C  c #76593B",
"Z  c #7D5E3C",
"A  c #7E603F",
"S  c #514D42",
"D  c #584A40",
"F  c #524D4B",
"G  c #505041",
"H  c #595243",
"J  c #5D5A47",
"K  c #5D5850",
"L  c #645D51",
"P  c #716A5A",
"I  c #7C6A5A",
"U  c #814821",
"Y  c #865426",
"T  c #855429",
"R  c #8A552A",
"E  c #89592C",
"W  c #865F3F",
"Q  c #81633F",
"!  c #956437",
"~  c #9A6236",
"^  c #95643C",
"/  c #966C3E",
"(  c #996C3C",
")  c #9E743E",
"_  c #A36F3E",
"`  c #A5703C",
"'  c #836440",
"]  c #8E6541",
"[  c #8E6C46",
"{  c #906746",
"}  c #996440",
"|  c #936B43",
" . c #9D7444",
".. c #836D5B",
"X. c #8C775D",
"o. c #92785E",
"O. c #A06E44",
"+. c #A27144",
"@. c #A17149",
"#. c #AC7C4D",
"$. c #B07D4F",
"%. c #AE7D50",
"&. c #A97B5A",
"*. c #B07E53",
"=. c #806D60",
"-. c #857F6F",
";. c #8D7B6D",
":. c #927A62",
">. c #B8865B",
",. c #9B8A6C",
"<. c #948A7D",
"1. c #AA967F",
"2. c #968D82",
"3. c #9B968E",
"4. c #A19A8E",
"5. c #A3A08E",
"6. c #BBA790",
"7. c #AEA9A8",
"8. c #B2AFAD",
"9. c #BFBBAE",
"0. c #BEBAB1",
"q. c #C3BDAF",
"w. c #D3C0B0",
"e. c #D2C6BA",
"r. c #DEDAD0",
"t. c #E7E6E5",
"y. c #E8E6E9",
/* pixels */
"C k j h h h h h h h h h h h h h h h h k k j j ,.",
"N &.v 6 T T T T Y T Y Y Y Y Y Y Y Y T ^ 6 } &.V ",
"l O.[ T %.#.#.#.#.#.#.#.#.#.#.#.#.#.#.>.6 R #.' ",
"t O.{ l c B B B V N M m M m m b m b b b 4 R $.' ",
"t ` | ^ < 9 D f f s > : - & @ @ O     . # E >.' ",
"t ` [ A 1 y G G a y > ; - $ $ O O X   X # R #.Q ",
"t ` :.e.9 q a a a y > ; - $ $ O X X X . # E $.Q ",
"t +.;.y.F > S S d u > ; - - + O X X X X # E $.Q ",
"t O.I 8.a 9 d g d u > ; - % + O X X X X @ E $.Q ",
"t  ...<.a 9 d d d p > ; - % % O X X X X # E $.Q ",
"t ` M 2 * q a d a p > ; - % + O X X X X # E >.Q ",
"t ` [ / 2 y g d d p > ; - % + O X X X   # E #.Q ",
"t _ } ! b q.4.G a i > ; - % + O X X X X # Y >.Q ",
"x  .| / 4.r.q.,.S i > ; - % + O O X X X # Y #.Q ",
"x ) ( ! 6.0.2.<.d i > ; - % + O X X X   # E #.Q ",
"U ` ( ~ X.3.4.P a p > ; - % + O O X X   # E #.I ",
"U  .| ^ 8 L L H a i > ; - % + O X X X X @ E %.' ",
"U  .{ ^ 1 q d S d i > ; - % + O X X X X # T %.' ",
"t +.:.q.q q S S a i > ; - - O O X X X X # R %.' ",
"t O.;.t.F q d S S p > ; - % + O O X X X # Y #.I ",
"x @.=.8.S > a S a p > ; - % + O X X X X # Y >.Q ",
"x @...2.f 9 d S S p > ; - % + O X X X   # Y #.Q ",
"l +.V 0 * 9 S S G p > ; - % + O X X X   # E #.Q ",
"5 x c Q , > a S p y > ; - % O O X X X   @ r T k "
};
