/* XPM */
static char *a09819b2dbe74037bdcd1322c8614f45pCP8tLO9fmduHIDE[] = {
/* columns rows colors chars-per-pixel */
"24 24 185 2 ",
"   c #4C2B0E",
".  c #513014",
"X  c #593418",
"o  c #5D3515",
"O  c #633717",
"+  c #6D3B15",
"@  c #663C1E",
"#  c #6C3C1A",
"$  c #703B12",
"%  c #713D19",
"&  c #573526",
"*  c #5B3924",
"=  c #5F3B2B",
"-  c #6E3720",
";  c #623F23",
":  c #6C3D21",
">  c #683E2A",
",  c #613C2B",
"<  c #723D20",
"1  c #59411E",
"2  c #6C4317",
"3  c #73411C",
"4  c #7A451F",
"5  c #7C4E1B",
"6  c #7E541D",
"7  c #55402D",
"8  c #5D4329",
"9  c #644427",
"0  c #6C4327",
"q  c #6D4825",
"w  c #654429",
"e  c #6A452A",
"r  c #6F4B2F",
"t  c #744323",
"y  c #764B25",
"u  c #7C4C24",
"i  c #74442A",
"p  c #7C4729",
"a  c #74492A",
"s  c #7A4E2B",
"d  c #794523",
"f  c #76572A",
"g  c #7D512C",
"h  c #7A5324",
"j  c #6A4F32",
"k  c #6A4734",
"l  c #6C543D",
"z  c #745334",
"x  c #7C5433",
"c  c #7A5839",
"v  c #7D6039",
"b  c #6D5442",
"n  c #64564B",
"m  c #715340",
"M  c #7B5640",
"N  c #765E48",
"B  c #765E44",
"V  c #7F6046",
"C  c #76614E",
"Z  c #766246",
"A  c #706257",
"S  c #7D6554",
"D  c #7B6A5A",
"F  c #6F7072",
"G  c #767372",
"H  c #787A7A",
"J  c #804A1E",
"K  c #80462A",
"L  c #814F2D",
"P  c #855526",
"I  c #885325",
"U  c #86542B",
"Y  c #89552B",
"T  c #975F2B",
"R  c #834F32",
"E  c #855332",
"W  c #895531",
"Q  c #8C5C34",
"!  c #8C5F3A",
"~  c #845939",
"^  c #925E34",
"/  c #915F39",
"(  c #996427",
")  c #95642D",
"_  c #9B642B",
"`  c #8D6336",
"'  c #86603B",
"]  c #8C643D",
"[  c #8E6A3D",
"{  c #956433",
"}  c #996434",
"|  c #976D31",
" . c #9B6B34",
".. c #93633B",
"X. c #9E6C3D",
"o. c #9F763F",
"O. c #A0672E",
"+. c #A46C2F",
"@. c #A16D3B",
"#. c #A3743C",
"$. c #A4793F",
"%. c #875C43",
"&. c #856244",
"*. c #8A6343",
"=. c #846249",
"-. c #8E6A4B",
";. c #8B6945",
":. c #926840",
">. c #9B6E42",
",. c #926C4C",
"<. c #986E4E",
"1. c #9B7443",
"2. c #97704F",
"3. c #9C734D",
"4. c #9C784E",
"5. c #957346",
"6. c #8E7659",
"7. c #95775D",
"8. c #9F775C",
"9. c #947B5F",
"0. c #9F7F58",
"q. c #997353",
"w. c #A06F41",
"e. c #A47543",
"r. c #A47841",
"t. c #AD7D45",
"y. c #A57D4B",
"u. c #AA7C4D",
"i. c #B07F4D",
"p. c #A37E56",
"a. c #A97D55",
"s. c #A0775A",
"d. c #A37E5A",
"f. c #8D7564",
"g. c #8C7D65",
"h. c #967B65",
"j. c #977B70",
"k. c #A47B60",
"l. c #9F8155",
"z. c #9C845E",
"x. c #A88047",
"c. c #A4804A",
"v. c #AB8453",
"b. c #A68659",
"n. c #B5865D",
"m. c #978367",
"M. c #86827C",
"N. c #88817B",
"B. c #9A8178",
"V. c #988676",
"C. c #A78766",
"Z. c #AC8869",
"A. c #A58A64",
"S. c #BD9A6A",
"D. c #C29F6C",
"F. c #C7A372",
"G. c #CAA676",
"H. c #D0A878",
"J. c #867F84",
"K. c #838383",
"L. c #8A8483",
"P. c #998881",
"I. c #999B9B",
"U. c #AC9583",
"Y. c #A69C95",
"T. c #B4A185",
"R. c #A9A39D",
"E. c #B2A39B",
"W. c #AFA7A6",
"Q. c #B3AEAA",
"!. c #CBAD85",
"~. c #CFC3BA",
"^. c #CEC2B2",
"/. c #D0C5BA",
"(. c #D6C8BB",
"). c #D8C1B3",
"_. c #C0C3C6",
"`. c #D9CDC8",
"'. c #D4D5CD",
"]. c #D9D5CE",
"[. c #D6D5D1",
"{. c #D9D6D2",
"}. c #EEE8EA",
"|. c #E6EBE4",
" X c #F9F7F6",
/* pixels */
"Z 9 w w e e 0 0 0 0 e 0 e 0 0 0 0 0 e e e w w m.",
"x a.~ # U I I I I I I I I I I I I I E / 3 ..v.z ",
"y X.3.p a.t.t.y.y.y.c.y.y.y.y.y.y.y.a.n.p U r.V ",
"y X.4.% U f x R L g g U L R R R E s g g - Y r.=.",
"y @.3.x d.d.s.@ d.b.0.s :.d.d.,.q l.0.d.: Y r.=.",
"y @.q.M <.H.F.2 y.F.D.] 1.v.F.S.6 5.!.G.p Y r.=.",
"y @.h.(.S C.m.> =.Z.,.%.%.,.s.k.r ! A.b.i U r.=.",
"y w.g.|.L.`.].].'.'.'.[.{.].].[.[.].T.l.i U r.&.",
"y w.g.R.G M.N.M.M.j.K.K.J.L.M.K.K.K.V.0.i U r.*.",
"y @.7.V.C w 8 * = 8 ; , , ; 1 8 & 2 @ 4.d Y r.&.",
"y @.,.. s X.a.+ ..v.X...W e.) v.3 { u.$.4 Y r.=.",
"y @.3.3 @. .u.+ { #.| { I +.) a.0 ..1.$.3 E r.&.",
"y @.s.4 O.O.u.+ }  . ./ U _ ` c f.N x o.i E e.&.",
"y @.3.4 T } 3.+ { ( } / Y { j Y. X].D ;.3 Y e.&.",
"4 @.1.4 O.) e.# T ( } ! P { B Q._.I.E.v a P $.&.",
"y @.3.4 T ( X.% ) _ } ` U { j R.G H V.*.i Y $.&.",
"u  .5.y } _ @.+ ) ( ^ Q I ) c 7 A n * >.t W e.&.",
"y #.q.0 ..) @.+ { ( } W P _ { o     g  .d U r.' ",
"y #.7.).&.' ;.# Q ` ! x g ` ! &.X z ' | 4 Y r.&.",
"y X.h.}.L.^.~./././.~./.~./.~.~././.U.[ 3 Y r.&.",
"y @.6.W.G j.K.K.K.K.K.K.K.K.K.K.K.K.j.[ t W e.=.",
"y o.h.B.S z b n b l l l b l b m l b r ` % Y $.&.",
"a w.,.& 0 T Q + ^ ) Q d U { ^ W + { ` ( 3 P $.&.",
"@ K s > s 5 a O L h h 3 t s P 4 $ L u 6 # t s k "
};
