/* XPM */
static char *result[] = {
/* columns rows colors chars-per-pixel */
"24 24 177 2 ",
"   c #15130F",
".  c #1A120F",
"X  c #0F1511",
"o  c #131414",
"O  c #191714",
"+  c #1B1915",
"@  c #1F1E1A",
"#  c #221D17",
"$  c #2A1C11",
"%  c #211D1B",
"&  c #2E2B25",
"*  c #322E24",
"=  c #322F2A",
"-  c #333027",
";  c #383126",
":  c #31312B",
">  c #39332A",
",  c #55331A",
"<  c #5A341D",
"1  c #573D1F",
"2  c #683B16",
"3  c #643C1D",
"4  c #6F3E1E",
"5  c #733E1C",
"6  c #443C2D",
"7  c #5D3C20",
"8  c #483F31",
"9  c #643C22",
"0  c #6F401A",
"q  c #7B461D",
"w  c #774C1D",
"e  c #784B1E",
"r  c #5E452B",
"t  c #4B4233",
"y  c #4A453A",
"u  c #46453C",
"i  c #5B4C36",
"p  c #564B38",
"a  c #5D4E3A",
"s  c #524434",
"d  c #5C503D",
"f  c #64452F",
"g  c #62482C",
"h  c #6C4D2F",
"j  c #694426",
"k  c #744424",
"l  c #794425",
"z  c #764B22",
"x  c #7C4D24",
"c  c #774729",
"v  c #7C4D2B",
"b  c #744D2C",
"n  c #634731",
"m  c #6A4C32",
"M  c #6D4E3E",
"N  c #794D30",
"B  c #64523C",
"V  c #725131",
"C  c #7B5433",
"Z  c #755937",
"A  c #7D5438",
"S  c #7F5B3F",
"D  c #75533C",
"F  c #7F623D",
"G  c #4D4D45",
"H  c #544F43",
"J  c #5F5340",
"K  c #545149",
"L  c #665842",
"P  c #665E4E",
"I  c #6D5744",
"U  c #725741",
"Y  c #745F4F",
"T  c #7C5F48",
"R  c #775A43",
"E  c #786449",
"W  c #7A684E",
"Q  c #71624A",
"!  c #676152",
"~  c #68665A",
"^  c #7F6150",
"/  c #7E6B54",
"(  c #766F6E",
")  c #7D7564",
"_  c #7F7769",
"`  c #7D7A6D",
"'  c #7C7B70",
"]  c #845525",
"[  c #895627",
"{  c #87562A",
"}  c #8B552A",
"|  c #85582F",
" . c #89592D",
".. c #855931",
"X. c #855834",
"o. c #915E33",
"O. c #96652F",
"+. c #9B632E",
"@. c #876134",
"#. c #81633D",
"$. c #8C6A3B",
"%. c #8C663E",
"&. c #926533",
"*. c #996434",
"=. c #9A6A34",
"-. c #93633B",
";. c #986639",
":. c #9B6B3B",
">. c #A16C3D",
",. c #866244",
"<. c #8A6648",
"1. c #8C6D4C",
"2. c #946B42",
"3. c #9F6D41",
"4. c #936A4A",
"5. c #8F7049",
"6. c #9E7243",
"7. c #856E52",
"8. c #896F58",
"9. c #8A6B52",
"0. c #857154",
"q. c #897256",
"w. c #83765F",
"e. c #8A795C",
"r. c #987356",
"t. c #977858",
"y. c #A16F43",
"u. c #A17143",
"i. c #A87747",
"p. c #A87847",
"a. c #A87749",
"s. c #A17F4D",
"d. c #A07955",
"f. c #A97C55",
"g. c #857A67",
"h. c #897C64",
"j. c #877F6D",
"k. c #927D62",
"l. c #867E7A",
"z. c #887E7B",
"x. c #998057",
"c. c #AC8353",
"v. c #A1815A",
"b. c #A78B5B",
"n. c #B18154",
"m. c #9A866A",
"M. c #8D8A7C",
"N. c #948672",
"B. c #AD8E6A",
"V. c #AC8966",
"C. c #B08461",
"Z. c #B48866",
"A. c #BB8A60",
"S. c #C09C77",
"D. c #C2A26F",
"F. c #8B8685",
"G. c #8E8D80",
"H. c #8B8989",
"J. c #938B83",
"K. c #9F8B83",
"L. c #949087",
"P. c #9F9183",
"I. c #94928E",
"U. c #9D9B9A",
"Y. c #A29A88",
"T. c #A2A091",
"R. c #A6A19A",
"E. c #C9BBAA",
"W. c #C5C5BB",
"Q. c #DBD1CB",
"!. c #DCD1C4",
"~. c #DEDDD6",
"^. c #E1CFC2",
"/. c #E0D5CA",
"(. c #E0DBD6",
"). c #E1DED8",
"_. c #E6E5E3",
/* pixels */
"D 3 3 9 9 3 3 3 3 3 3 3 3 3 3 2 0 1 9 9 9 9 1 e.",
"A f...4  .} } } } } } } } } } } [  . .-.5 -.f.Z ",
"z 6.2.v f.n.c.c.n.f.f.n.n.f.n.n.c.c.n.n.q [ i.#.",
"z :.2.2 l c c c v X.V V h g r g r r g r ,  .i.F ",
"z >.2.C.Z.C V.V.,.B.k.B s ; # O       . $  .p.F ",
"z y.5.9.B.@.s.D.$.b.m.B s ; # + o X     $ { p.F ",
"z y.k./.9.X.9.r.<.t.g.a 8 = # O         $  .p.F ",
"e 6.h._.H.).).).~.W.T.j.K = % O o X o o $ | i.#.",
"w 6.w.U.( l.l.l.H.J.g.P y - @ O o o o   $ { i.F ",
"w y.9.K.M , 7 7 m E I i > * @ O o o o   $ { i.#.",
"w >.,.< X.{ :.3.-.v.q.B t & @ O o o o   $ { i.#.",
"e >.4.2.:.] =.=.$.x./ d t = @ O o o o   $ { i.#.",
"e :.2.*.:.] *.:.%.7.) ` y = @ O o o o o $ { p.#.",
"e 3.5.&.=.{ +.=.F g.M.' G : @ O o X o o $  .p.#.",
"w >.-.O.=.] +.*.V N.M.! u : @ O o o X   $ { p.#.",
"w >.2.O.*.] *.o.j Q N.! y & @ O O X O   $ { p.F ",
"w >.2.-.;.] *.&.j R L p 6 * @ O o o o   $ { i.F ",
"w >.1.,.-.x *.;.@.2.W a t * # O o o o   $ { p.#.",
"w u.t.^.T b X.#.$.t./ d t * + + o o o   $ | p.#.",
"z u.h._.J.Q.Q.Q.W.W.P.) p : + + o O o o $ | a.#.",
"z u.0.R.( H.H.H.I.L.g.P y * @ O O o o   $ { p.#.",
"x 3.7.K.I 9 n i U 7.Q i 6 - @ O o o o   $ } p.#.",
"b 3.,., X.5 o.o.| t.7.B t - @ O o o o o $ { a.F ",
"9 x c N c 4 ] ] C 5.E i 6 * % + o o o   $ k v m "
};
