/* XPM */
static char *result[] = {
/* columns rows colors chars-per-pixel */
"24 24 133 2 ",
"   c black",
".  c #010101",
"X  c #030101",
"o  c #000102",
"O  c #040202",
"+  c #010305",
"@  c #010405",
"#  c #040404",
"$  c #030B0F",
"%  c #040B0F",
"&  c #090909",
"*  c #110806",
"=  c #040C12",
"-  c #040D12",
";  c #06131A",
":  c #07161D",
">  c #111111",
",  c gray7",
"<  c #161413",
"1  c #121516",
"2  c #161616",
"3  c #1B1B1B",
"4  c #23110C",
"5  c #27130E",
"6  c #28130E",
"7  c #34211C",
"8  c #081820",
"9  c #081821",
"0  c #081D28",
"q  c #091E28",
"w  c #0A1E29",
"e  c #0F2E3F",
"r  c #202020",
"t  c #232120",
"y  c gray14",
"u  c #282828",
"i  c #22343E",
"p  c #29373E",
"a  c #462219",
"s  c #472219",
"d  c #4A241A",
"f  c #592B1F",
"g  c #6D3527",
"h  c #7B3C2C",
"j  c #0F3041",
"k  c #12384C",
"l  c #133B50",
"z  c #143E55",
"x  c #15435B",
"c  c #174964",
"v  c #1B5472",
"b  c #1D5572",
"n  c #1C5776",
"m  c #274F64",
"M  c #2C5266",
"N  c #325A6F",
"B  c gray28",
"V  c #4E4E4E",
"C  c gray35",
"Z  c #5B5B5B",
"A  c #4A626E",
"S  c #6D6D6D",
"D  c #6F6F6F",
"F  c #864130",
"G  c #894231",
"H  c #DF7358",
"J  c #E26D50",
"K  c #E66F52",
"L  c #E97153",
"P  c #EB7254",
"I  c #F47656",
"U  c #F87858",
"Y  c #F88164",
"T  c #F98D72",
"R  c #F98E73",
"E  c #206487",
"W  c #21688D",
"Q  c #2A779F",
"!  c #2A84B3",
"~  c #2C8ABB",
"^  c #2D8DBF",
"/  c #3199CF",
"(  c #339BD1",
")  c #319BD2",
"_  c #329ED6",
"`  c #34A2DB",
"'  c #35A5DF",
"]  c #37ACE9",
"[  c #38AFED",
"{  c #3AB5F5",
"}  c #3BB9FA",
"|  c #3CBBFE",
" . c #3CBCFF",
".. c #49ABDE",
"X. c #4AAEE2",
"o. c #49C0FF",
"O. c #54C4FE",
"+. c #808080",
"@. c gray52",
"#. c #898989",
"$. c gray57",
"%. c #9F9F9F",
"&. c #A2A2A2",
"*. c #AFB1B3",
"=. c #B2B0B0",
"-. c #B6B6B6",
";. c gray73",
":. c #FBA894",
">. c #FBB3A1",
",. c #FCC1B2",
"<. c #FCC3B4",
"1. c #A4DDFB",
"2. c gray80",
"3. c #D0D0D0",
"4. c #D7D7D7",
"5. c gray85",
"6. c gray86",
"7. c #FCCCC0",
"8. c #E6E6E6",
"9. c gray93",
"0. c #E1F1F9",
"q. c #F4F4F4",
"w. c gray96",
"e. c #F6F6F6",
"r. c gray97",
"t. c #F8F6F5",
"y. c #F8F7F7",
"u. c #F5F7F8",
"i. c #F7F8F8",
"p. c #F8F8F8",
"a. c gray98",
"s. c white",
"d. c None",
/* pixels */
"d.d.d.d.d.d.d.d.d.            d.d.d.    d.d.d.d.",
"d.d.d.d.d.d.d.    e.a.a.a.a.&.      J I a d.d.d.",
"d.d.d.d.d.  C 9.9.s.s.s.s.s.p.9.9.# K U s d.d.d.",
"d.d.d.d.  h H R R R R R R 7.s.s.s.4.7 6 d.d.d.d.",
"d.d.d.d.  5 F U U d P U U T ,.s.s.s., d.d.d.d.d.",
"d.d.d.d.    f U U O K U U U :.s.s.s., d.d.d.d.d.",
"d.d.d.d.    f U U O K U U U :.s.s.s., d.d.d.d.d.",
"d.d.d.d.  * g U U 4 L U U Y >.s.s.s., d.d.d.d.d.",
"d.d.d.d.  G U U U U U U U <.s.s.s.s., d.d.d.d.d.",
"d.d.d.d.d.X O t t.t.< O =.y.p.p.p.& d.d.d.d.d.d.",
"d.d.d.d.  E [ ( , , 4.8.V , , , ,   d.d.d.d.d.d.",
"d.d.d.d.  W ! i 3.3.w.p.B n _ ~   2.> d.d.d.d.d.",
"d.d.d.d.  q A ;.p.p.p.p.B W  .'   q.-.y d.d.d.d.",
"d.d.d.d.d.  u +.p.p.p.@.r e v c   S D , d.d.d.d.",
"d.d.d.d.d.  9 m %.%.%.M x x x l     z $ d.d.d.d.",
"d.d.d.d.d.3 N X.8 8 8 `  .o.O...    / 0 d.d.d.d.",
"d.d.d.    #.p.0. . . . . .1.p.5.      d.d.d.d.d.",
"d.d.  ) } b Z p.u.u.1 + *.i.p.r.q.# d.d.d.d.d.d.",
"d.d.  % ~ { Q , , , . d.> $.p.6., ] = d.d.d.d.d.",
"d.d.    : w ;             2 u p _ | - d.d.d.d.d.",
"d.d.d.                      j ^  .k @   d.d.d.d.",
"d.d.d.d.                    w v v o     d.d.d.d.",
"d.d.d.d.d.                              d.d.d.d.",
"d.d.d.d.d.d.d.d.d.d.d.                d.d.d.d.d."
};
