/* XPM */
static char *result[] = {
/* columns rows colors chars-per-pixel */
"24 24 132 2 ",
"   c black",
".  c #010101",
"X  c #020101",
"o  c #000102",
"O  c #010203",
"+  c #020202",
"@  c #040202",
"#  c #010304",
"$  c #010305",
"%  c #010405",
"&  c #040404",
"*  c gray2",
"=  c #040B0F",
"-  c #090909",
";  c #0C0C0C",
":  c gray5",
">  c #1F0F0B",
",  c #040C12",
"<  c #040D12",
"1  c gray7",
"2  c #161616",
"3  c gray12",
"4  c #21100B",
"5  c #21100C",
"6  c #28130E",
"7  c #3A1C15",
"8  c #091C27",
"9  c #0A1E29",
"0  c #0B232F",
"q  c #0C2634",
"w  c #232120",
"e  c #232323",
"r  c #282828",
"t  c gray16",
"y  c #292B2C",
"u  c #2C2C2C",
"i  c #29373E",
"p  c #5D2D21",
"a  c #6E3527",
"s  c #6F3627",
"d  c #7B3C2C",
"f  c #0F3041",
"g  c #0F3244",
"h  c #113649",
"j  c #12384C",
"k  c #133B50",
"l  c #15435B",
"z  c #18465E",
"x  c #3B4F5A",
"c  c #184A64",
"v  c #184B66",
"b  c #194E6A",
"n  c #1A5270",
"m  c #1B5472",
"M  c #1D5674",
"N  c #444444",
"B  c gray28",
"V  c gray31",
"C  c #415159",
"Z  c #425159",
"A  c gray34",
"S  c gray35",
"D  c #58595A",
"F  c gray36",
"G  c #6F6F6F",
"H  c #656E73",
"J  c #7E7E7E",
"K  c gray50",
"L  c #894231",
"P  c #9F4D39",
"I  c #AB533D",
"U  c #B95942",
"Y  c #CC6349",
"T  c #D0654A",
"R  c #DF7358",
"E  c #F47656",
"W  c #F87858",
"Q  c #F9896D",
"!  c #F98E73",
"~  c #1F6183",
"^  c #21688D",
"/  c #2F7498",
"(  c #2779A4",
")  c #627681",
"_  c #6E7E87",
"`  c #2C8ABB",
"'  c #2D8DBF",
"]  c #2E8FC2",
"[  c #2F94C9",
"{  c #329ED6",
"}  c #35A5DF",
"|  c #38A8E3",
" . c #37ABE8",
".. c #37ABE9",
"X. c #38AFED",
"o. c #3CBBFE",
"O. c #3CBCFF",
"+. c #40BDFF",
"@. c #54C4FE",
"#. c #5AC6FE",
"$. c #838E93",
"%. c #9A9A9A",
"&. c #A2A2A2",
"*. c #B1B1B1",
"=. c #B6B6B6",
"-. c #BBBBBB",
";. c #FA9E87",
":. c #A4DDFB",
">. c #B5E3FB",
",. c gray77",
"<. c #C5C5C5",
"1. c gray78",
"2. c #D0D0D0",
"3. c #D5D5D5",
"4. c gray85",
"5. c gray86",
"6. c #E4E4E4",
"7. c #E6E6E6",
"8. c #EAEAEA",
"9. c gray93",
"0. c gray94",
"q. c #F4F4F4",
"w. c #F6F6F6",
"e. c #FFF5F3",
"r. c #F8F6F5",
"t. c #FFF7F5",
"y. c #FFF8F6",
"u. c #F8F8F8",
"i. c gray98",
"p. c #FFFDFC",
"a. c white",
"s. c None",
/* pixels */
"s.s.s.s.s.s.s.s.s.            s.s.s.s.    s.s.s.",
"s.s.s.s.s.s.s.    w.i.i.i.i.&.    s.  Y E a   s.",
"s.s.s.s.s.  S 9.9.a.a.a.a.a.u.9.9.&   T W s   s.",
"s.s.s.s.  d R ! ! p.a.a.a.a.a.6.t .   5 6 4 s.s.",
"s.s.s.s.  L U p W ;.y.a.a.a.a.w.=.=.: s.s.s.s.s.",
"s.s.s.s.  L P > W W e.a.a.a.a.a.a.a.1 s.s.s.s.s.",
"s.s.s.s.  L P > W W e.a.a.a.a.a.a.a.1 s.s.s.s.s.",
"s.s.s.s.  L I 7 W Q t.a.a.a.a.a.a.a.1 s.s.s.s.s.",
"s.s.s.s.  L W W W p.a.a.a.a.a.a.a.a.1 s.s.s.s.s.",
"s.s.s.    X @ w r.u.u.u * * F u.u.- s.s.s.s.s.s.",
"s.s.  [ X.b   + 1 1 1 ,.7.7.%.1 1 s.s.s.s.s.s.s.",
"s.s.  { v < j { { { = 2.u.u.8.=.  s.s.s.s.s.s.s.",
"s.s.s.g $.V l O.O.O.` Z <.u.u.4.    s.s.s.s.s.s.",
"s.s.s.  *.G x :.:.M m < V -.1.H ^ O s.s.s.s.s.s.",
"s.s.s.  J B C >.>.z l l l ) _ n O.$ s.s.s.s.s.s.",
"s.s.s.s.    k | @.@.@.+.O.~ c } } # s.s.s.s.s.s.",
"s.s.s.s.s.    3 u.u.u.#.O.O.(     s.s.s.s.s.s.s.",
"s.s.s.      A q.u.u.u.y $ $ D 3.    s.s.s.s.s.s.",
"s.s.  [ X.b S 5.1 i.a.0.N K 9.4.  .., s.s.s.s.s.",
"s.s.s.8 ]  ./ e   r t t ; 2 r i { o.< s.s.s.s.s.",
"s.s.    q h 0               f ' O.j %   s.s.s.s.",
"s.s.                        9 m m o     s.s.s.s.",
"s.s.                                    s.s.s.s.",
"s.s.s.                                s.s.s.s.s."
};
