/* XPM */
static char *result[] = {
/* columns rows colors chars-per-pixel */
"24 24 4 1 ",
"  c #000001",
". c #FF8170",
"X c white",
"o c None",
/* pixels */
"oooooooooooooooooooooooo",
"oooooooooooooooooooooooo",
"oooooooooooooooooooooooo",
"oooooooooooooooooooooooo",
"ooooooooo      ooooooooo",
"ooooooo   ....   ooooooo",
"oooooo  ........  oooooo",
"ooooo  ..........  ooooo",
"ooooo ............ ooooo",
"oooo  ...XX..XX...  oooo",
"oooo ....X ..X .... oooo",
"oooo ....X ..X .... oooo",
"oooo .............. oooo",
"oooo .............. oooo",
"oooo  ............  oooo",
"ooooo ....    .... ooooo",
"ooooo  ....  ....  ooooo",
"oooooo  ........  oooooo",
"ooooooo   ....   ooooooo",
"ooooooooo      ooooooooo",
"oooooooooooooooooooooooo",
"oooooooooooooooooooooooo",
"oooooooooooooooooooooooo",
"oooooooooooooooooooooooo"
};
