/* XPM */
static char *result[] = {
/* columns rows colors chars-per-pixel */
"24 24 92 1 ",
"  c black",
". c #030101",
"X c #020202",
"o c #040202",
"O c #010304",
"+ c #010305",
"@ c #030404",
"# c #040404",
"$ c #020709",
"% c #090909",
"& c #0B0B0B",
"* c gray6",
"= c #1F0F0B",
"- c #06171F",
"; c #111111",
": c gray7",
"> c #25110C",
", c #24120D",
"< c #28130E",
"1 c #081821",
"2 c #0A1E29",
"3 c #0B232F",
"4 c #232120",
"5 c #2C2B2B",
"6 c #472219",
"7 c #7B3C2C",
"8 c #113649",
"9 c #12384C",
"0 c #133B50",
"q c #143E54",
"w c #144056",
"e c #15435B",
"r c #3B4F5A",
"t c #174964",
"y c #1B5472",
"u c #4E4E4E",
"i c #415159",
"p c gray35",
"a c #5D5D5D",
"s c #406070",
"d c #6F6F6F",
"f c #894231",
"g c #9E4C38",
"h c #9F4D39",
"j c #AE543E",
"k c #B1563F",
"l c #D9694D",
"z c #DD6B4E",
"x c #DF7358",
"c c #E26D50",
"v c #F47656",
"b c #F47657",
"n c #F57657",
"m c #F87858",
"M c #F9866A",
"N c #F98E73",
"B c #20658A",
"V c #2C8ABB",
"C c #2E92C6",
"Z c #3199CF",
"A c #329ED6",
"S c #35A5DF",
"D c #38AFED",
"F c #3CBCFF",
"G c #9D9D9D",
"H c #A2A2A2",
"J c gray70",
"K c #FA9880",
"L c #86C7EA",
"P c #90D7FC",
"I c #A4DDFB",
"U c #B5E3FB",
"Y c #C1C1C1",
"T c gray77",
"R c #D7D7D7",
"E c gainsboro",
"W c #FDD8CF",
"Q c #FDDDD5",
"! c #FEE3DD",
"~ c #E6E6E6",
"^ c gray93",
"/ c #EFEFEF",
"( c #FEE9E4",
") c #FEEDE8",
"_ c gray95",
"` c #F4F4F4",
"' c #F6F6F6",
"] c #F8F6F5",
"[ c #F8F8F8",
"{ c gray98",
"} c white",
"| c None",
/* pixels */
"|   |||||      |||||||||",
" gvj ||  H{{{{'  |||||||",
" hmk  #^^[}}}}}^^p |||||",
"|><,|*R}}}}})NNNNx7 ||||",
"|||||:}}}}}!Kmn6cmf ||||",
"|||||:}}}}}Wmmv lmf ||||",
"|||||:}}}}}Wmmv lmf ||||",
"|||||:}}}}}QMmb=zmf ||||",
"|||||:}}}}}}(mmmmmf ||||",
"||||||%[[[[J5]]]4o.|||||",
"|||||||::::uT:::X|||||||",
"||||||| V9aE_YOAAq||||||",
"||||||| Sed[[~+FFe |||||",
"||||||| t2sPPL@IIr |||||",
"||||||| 01yFFD@UUi |||||",
"||||||| C0tSSZOSSw||||||",
"||||||||         |||||||",
"|||||||| G````/ ||||||||",
"|||||||| &::::; ||||||||",
"|||||    BAAAAAA-   ||||",
"||||     3888888$    |||",
"||||                 |||",
"||||                 |||",
"|||||               ||||"
};
