/* XPM */
static char *result[] = {
/* columns rows colors chars-per-pixel */
"24 24 132 2 ",
"   c black",
".  c #010101",
"X  c #020101",
"o  c #000102",
"O  c #010203",
"+  c #020202",
"@  c #040202",
"#  c #010304",
"$  c #010305",
"%  c #010405",
"&  c #040404",
"*  c gray2",
"=  c #040B0F",
"-  c #090909",
";  c #0C0C0C",
":  c gray5",
">  c #1F0F0B",
",  c #040C12",
"<  c #040D12",
"1  c gray7",
"2  c #161616",
"3  c gray12",
"4  c #21100B",
"5  c #21100C",
"6  c #28130E",
"7  c #3A1C15",
"8  c #091C27",
"9  c #0A1E29",
"0  c #0B232F",
"q  c #0C2634",
"w  c #232120",
"e  c #232323",
"r  c #282828",
"t  c gray16",
"y  c #292B2C",
"u  c #2C2C2C",
"i  c #29373E",
"p  c #5D2D21",
"a  c #6E3527",
"s  c #6F3627",
"d  c #7B3C2C",
"f  c #0F3041",
"g  c #0F3244",
"h  c #113649",
"j  c #12384C",
"k  c #133B50",
"l  c #15435B",
"z  c #18465E",
"x  c #3B4F5A",
"c  c #184A64",
"v  c #184B66",
"b  c #194E6A",
"n  c #1A5270",
"m  c #1B5472",
"M  c #1D5674",
"N  c #444444",
"B  c gray28",
"V  c gray31",
"C  c #415159",
"Z  c #425159",
"A  c gray34",
"S  c gray35",
"D  c #58595A",
"F  c gray36",
"G  c #6F6F6F",
"H  c #656E73",
"J  c #7E7E7E",
"K  c gray50",
"L  c #894231",
"P  c #9F4D39",
"I  c #AB533D",
"U  c #B95942",
"Y  c #CC6349",
"T  c #D0654A",
"R  c #DF7358",
"E  c #F47656",
"W  c #F87858",
"Q  c #F9896D",
"!  c #F98E73",
"~  c #1F6183",
"^  c #21688D",
"/  c #2F7498",
"(  c #2779A4",
")  c #627681",
"_  c #6E7E87",
"`  c #2C8ABB",
"'  c #2D8DBF",
"]  c #2E8FC2",
"[  c #2F94C9",
"{  c #329ED6",
"}  c #35A5DF",
"|  c #38A8E3",
" . c #37ABE8",
".. c #37ABE9",
"X. c #38AFED",
"o. c #3CBBFE",
"O. c #3CBCFF",
"+. c #40BDFF",
"@. c #54C4FE",
"#. c #5AC6FE",
"$. c #838E93",
"%. c #9A9A9A",
"&. c #A2A2A2",
"*. c #B1B1B1",
"=. c #B6B6B6",
"-. c #BBBBBB",
";. c #FA9E87",
":. c #A4DDFB",
">. c #B5E3FB",
",. c gray77",
"<. c #C5C5C5",
"1. c gray78",
"2. c #D0D0D0",
"3. c #D5D5D5",
"4. c gray85",
"5. c gray86",
"6. c #E4E4E4",
"7. c #E6E6E6",
"8. c #EAEAEA",
"9. c gray93",
"0. c gray94",
"q. c #F4F4F4",
"w. c #F6F6F6",
"e. c #FFF5F3",
"r. c #F8F6F5",
"t. c #FFF7F5",
"y. c #FFF8F6",
"u. c #F8F8F8",
"i. c gray98",
"p. c #FFFDFC",
"a. c white",
"s. c None",
/* pixels */
"s.s.s.    s.s.s.s.            s.s.s.s.s.s.s.s.s.",
"s.  a E Y   s.    &.i.i.i.i.w.    s.s.s.s.s.s.s.",
"s.  s W T   & 9.9.u.a.a.a.a.a.9.9.S   s.s.s.s.s.",
"s.s.4 6 5   . t 6.a.a.a.a.a.p.! ! R d   s.s.s.s.",
"s.s.s.s.s.: =.=.w.a.a.a.a.y.;.W p U L   s.s.s.s.",
"s.s.s.s.s.1 a.a.a.a.a.a.a.e.W W > P L   s.s.s.s.",
"s.s.s.s.s.1 a.a.a.a.a.a.a.e.W W > P L   s.s.s.s.",
"s.s.s.s.s.1 a.a.a.a.a.a.a.t.Q W 7 I L   s.s.s.s.",
"s.s.s.s.s.1 a.a.a.a.a.a.a.a.p.W W W L   s.s.s.s.",
"s.s.s.s.s.s.- u.u.F * * u u.u.r.w @ X     s.s.s.",
"s.s.s.s.s.s.s.1 1 %.7.7.,.1 1 1 +   b X.[   s.s.",
"s.s.s.s.s.s.s.  =.8.u.u.2.= { { { j < v {   s.s.",
"s.s.s.s.s.s.    4.u.u.<.Z ` O.O.O.l V $.g s.s.s.",
"s.s.s.s.s.s.O ^ H 1.-.V < m M :.:.x G *.  s.s.s.",
"s.s.s.s.s.s.$ O.n _ ) l l l z >.>.C B J   s.s.s.",
"s.s.s.s.s.s.# } } c ~ O.+.@.@.@.| k     s.s.s.s.",
"s.s.s.s.s.s.s.    ( O.O.#.u.u.u.3     s.s.s.s.s.",
"s.s.s.s.s.s.    3.D $ $ y u.u.u.q.A       s.s.s.",
"s.s.s.s.s., ..  4.9.K N 0.a.i.1 5.S b X.[   s.s.",
"s.s.s.s.s.< o.{ i r 2 ; t t r   e /  .] 8 s.s.s.",
"s.s.s.s.  % j O.' f               0 h q     s.s.",
"s.s.s.s.    o m m 9                         s.s.",
"s.s.s.s.                                    s.s.",
"s.s.s.s.s.                                s.s.s."
};
