/* XPM */
static char *result[] = {
/* columns rows colors chars-per-pixel */
"24 24 93 2 ",
"   c black",
".  c #000001",
"X  c #010101",
"o  c #000102",
"O  c #010203",
"+  c gray1",
"@  c #010304",
"#  c #010305",
"$  c #040404",
"%  c #020608",
"&  c #03080B",
"*  c #030A0D",
"=  c #030A0E",
"-  c #0E0E0E",
";  c #040D12",
":  c #051117",
">  c #07161E",
",  c #111111",
"<  c gray7",
"1  c #161616",
"2  c #081820",
"3  c #0A1E29",
"4  c #151E23",
"5  c #0B2330",
"6  c #0E2B3B",
"7  c #0F2E3F",
"8  c gray14",
"9  c #282828",
"0  c #422017",
"q  c #472219",
"w  c #593A32",
"e  c #0F3041",
"r  c #113649",
"t  c #143E54",
"y  c #15435B",
"u  c #174760",
"i  c #184A65",
"p  c #1B5472",
"a  c #2C5266",
"s  c gray28",
"d  c gray33",
"f  c #575859",
"g  c gray35",
"h  c #536C7A",
"j  c #646464",
"k  c #6D6F6F",
"l  c #747474",
"z  c #7B7B7B",
"x  c #C15E45",
"c  c #D0654A",
"v  c #21688D",
"b  c #25739B",
"n  c #26769F",
"m  c #2779A4",
"M  c #2B86B6",
"N  c #78858C",
"B  c #329ED6",
"V  c #34A2DB",
"C  c #38AFED",
"Z  c #39B2F1",
"A  c #3CBCFF",
"S  c #3FBDFF",
"D  c #7ED1FD",
"F  c #838383",
"G  c gray54",
"H  c #8D8D8D",
"J  c #968C89",
"K  c #848D92",
"L  c gray58",
"P  c gray61",
"I  c #9F9F9F",
"U  c #ACACAC",
"Y  c #B1B1B1",
"T  c #B6B6B6",
"R  c #B7B7B7",
"E  c #BBBBBB",
"W  c #CDCDCD",
"Q  c #D0D0D0",
"!  c gray84",
"~  c #D8D8D8",
"^  c gray87",
"/  c #E9E9E9",
"(  c #EEEEEE",
")  c #EBF4F8",
"_  c #EFF5F8",
"`  c gray94",
"'  c #F4F4F4",
"]  c #F5F7F8",
"[  c #F8F8F8",
"{  c #F9F9F9",
"}  c #FEFEFE",
"|  c white",
" . c None",
/* pixels */
" . . . . . . . . . . . . . . . . . . . . . . . .",
" . . . . . . . . .             . . . . . . . . .",
" . . . . . . .    / , x 0 F P      . . . . . . .",
" . . . . . .d ! ! } < c q H ` ! ! $  . . . . . .",
" . . . .  l Q | | | E w J ^ | | | R ,  . . . . .",
" . . . .  H | | | | | I ^ | | | | | <  . . . . .",
" . . . .  H | | | | | | | | | | | | <  . . . . .",
" . . . .  H | | | | | | | | | | | | <  . . . . .",
" . . . .  H | | | | | | | | | | | | <  . . . . .",
" . . . .  H | | | | | | | | | | | | <  . . . . .",
" . . . . ., j { { { { { { { { { { 1  . . . . . .",
" . . . .  z L 9 9 9 9 9 9 9 9 9 9 W ,  . . . . .",
" . . .  G ~ I : M M M M M M M n   ' T 8  . . . .",
" . . .  Y U h b A A A A A A A Z v k ( 9  . . . .",
" . . .t N s 6 m m m m m m m m m m O L a 5  . . .",
" . .  B u = & 2 2 2 2 2 2 2 2 2 2 . > V r  . . .",
" . .  B A p y A A A A A A A A A A # C A r  . . .",
" . . .@ # o f ] ] S A A A A D ] ] $ @ #  . . . .",
" . . . . .  g [ [ ) 4 ; ; K _ [ [ $  . . . . . .",
" . . . . .  - 9 9 9 +     1 9 9 9 X  . . . . . .",
" . . . .    e M M M *     i M M M O    . . . . .",
" . . . .    3 p p p %     7 p p p o      . . . .",
" . . .                                   . . . .",
" . . . .                               . . . . ."
};
