/* XPM */
static char *result[] = {
/* columns rows colors chars-per-pixel */
"24 24 92 1 ",
"  c black",
". c #000001",
"X c #010203",
"o c #040201",
"O c #040202",
"+ c #010305",
"@ c #040404",
"# c gray2",
"$ c #02070A",
"% c #03080B",
"& c #03090C",
"* c #090909",
"= c #040D12",
"- c #051117",
"; c #111111",
": c gray7",
"> c #191919",
", c gray11",
"< c #081820",
"1 c #151E23",
"2 c #0C2532",
"3 c #0E2B3B",
"4 c #232323",
"5 c #272727",
"6 c #282828",
"7 c #472219",
"8 c #56291E",
"9 c #592B1F",
"0 c #133D53",
"q c #15435B",
"w c #174964",
"e c #184E6B",
"r c #1B5472",
"t c #2C5266",
"y c gray26",
"u c #464646",
"i c gray28",
"p c gray33",
"a c #575859",
"s c gray35",
"d c #516570",
"f c #536C7A",
"g c #646464",
"h c gray43",
"j c gray44",
"k c #727272",
"l c #747474",
"z c #7B7B7B",
"x c #E66F52",
"c c #F87858",
"v c #8E817E",
"b c #21688D",
"n c #376A84",
"m c #25739B",
"M c #26769F",
"N c #2779A4",
"B c #2B86B6",
"V c #2C8CBE",
"C c #3199D0",
"Z c #35A5DF",
"A c #39B2F1",
"S c #3CBCFF",
"D c #3FBDFF",
"F c #53C3FE",
"G c gray52",
"H c #898989",
"J c #8D8D8D",
"K c gray58",
"L c #9F9F9F",
"P c #81A2B3",
"I c #A9B2B7",
"U c #B4B4B3",
"Y c #CFD7DC",
"T c #D0D0D0",
"R c gray84",
"E c #D7D7D7",
"W c gainsboro",
"Q c #E2E2E2",
"! c #E6E6E6",
"~ c #E9E9E9",
"^ c gray92",
"/ c gray93",
"( c #EBF4F8",
") c #EBF4F9",
"_ c #F4F4F4",
"` c #F5F7F8",
"' c #F8F8F8",
"] c #F9F9F9",
"[ c #FDFDFD",
"{ c #FEFEFE",
"} c white",
"| c None",
/* pixels */
"||||||||||||||||||||||||",
"|||||||||    ||  |||||||",
"|||||||  ~///h8xxo||||||",
"||||||pRR{}}}k9ccO||||||",
"|||| lT}}}}}}Ev77U;|||||",
"|||| J}}}}}}}}RJJ[:|||||",
"|||| J}}}}}}}}}}}}:|||||",
"|||| J}}}}}}}}}}}}:|||||",
"|||| J}}}}}}}}}}}}:|||||",
"|||| J}}}}}}}}}}}* |||||",
"|||||;g]]]]]]]]W:Q!5||||",
"|||| zK666666664 _'Ey|||",
"|||| HL-BBBBBBBM u^'i|||",
"||||jzfmSSSSSSSAbX!Gn0||",
"||| Pd3NNNNNNNNNNXKtCr |",
"||| Mw%<<<<<<<<<<. VZe |",
"|||   qSSSSSSSSSS+|  |||",
"||||  a``DSSSSSF`@||||||",
"||||| s''(1=I))Y:|||||||",
"||||| s''': ,664 |||||||",
"||||  >iii#        |||||",
"||||  2bbb$         ||||",
"|||   3NNN&         ||||",
"||||               |||||"
};
