/* XPM */
static char *result[] = {
/* columns rows colors chars-per-pixel */
"24 24 92 1 ",
"  c black",
". c #000001",
"X c #010101",
"o c #010203",
"O c gray1",
"+ c #040201",
"@ c #040202",
"# c #010305",
"$ c #040404",
"% c gray2",
"& c #060606",
"* c #03080B",
"= c #040D12",
"- c #051117",
"; c #111111",
": c gray7",
"> c #161616",
", c #081820",
"< c #081A24",
"1 c #1D2428",
"2 c #0C2532",
"3 c #0E2B3B",
"4 c #232323",
"5 c #272727",
"6 c #282828",
"7 c #2D2E2F",
"8 c gray18",
"9 c #2F2F2F",
"0 c #293237",
"q c #472219",
"w c #56291E",
"e c #592B1F",
"r c #103346",
"t c #123A4E",
"y c #15435B",
"u c #1C5775",
"i c gray28",
"p c #575859",
"a c gray37",
"s c #6D6F6F",
"d c #6F6F6F",
"f c #626E74",
"g c #747474",
"h c #E66F52",
"j c #F87858",
"k c #8E817E",
"l c #206487",
"z c #21688D",
"x c #25739B",
"c c #26769F",
"v c #2779A4",
"b c #2B86B6",
"n c #78858C",
"m c #3199CF",
"M c #319AD0",
"N c #35A5DF",
"B c #38AFED",
"V c #39B2F1",
"C c #3CBCFF",
"Z c #7ED1FD",
"A c gray53",
"S c #898989",
"D c #8D8D8D",
"F c #848D92",
"G c gray59",
"H c #9B9B9B",
"J c gray61",
"K c #9F9F9F",
"L c #A7A7A7",
"P c gray70",
"I c #B4B4B3",
"U c #B7B7B7",
"Y c #A8D2E9",
"T c #CDCDCD",
"R c #D0D0D0",
"E c gray82",
"W c gray84",
"Q c gainsboro",
"! c #DEF0F9",
"~ c #E6E6E6",
"^ c gray93",
"/ c #EBF4F9",
"( c #EFF5F8",
") c gray94",
"_ c #F4F4F4",
"` c #F5F7F8",
"' c #F8F8F8",
"] c #F9F9F9",
"[ c gray98",
"{ c #FDFDFD",
"} c white",
"| c None",
/* pixels */
"||||||||||||||||||||||||",
"|||||||  |     |||||||||",
"||||| whh+Q^^^J  |||||||",
"||||| ejj@^}}})WW$||||||",
"|||| gkqqI[}}}}}}U;|||||",
"|||| DWDD{}}}}}}}}:|||||",
"|||| D}}}}}}}}}}}}:|||||",
"|||| D}}}}}}}}}}}}:|||||",
"|||| D}}}}}}}}}}}}:|||||",
"|||| Oa}}}}}}}}}}}:|||||",
"||| L~H9]]]]]]]]]>||||||",
"|| P^'K%666666666T;|||||",
"|| R'G8-bbbbbbbc _:|||||",
"| lfEd2xCCCCCCCVzsA4||||",
"| Buni3vvvvvvvvvvoY1||||",
"| MNr *,,,,,,,,,,.m<||||",
"||  | yCCCCCCCCCC#  ||||",
"||||| p!CCCCCCZ``$ |||||",
"|||||||7///0=F(''$||||||",
"|||||||%666& S'''$||||||",
"||||         5iiiX |||||",
"||||         tzzzo  ||||",
"|||          yvvvo  ||||",
"||||               |||||"
};
