/* XPM */
static char *result[] = {
/* columns rows colors chars-per-pixel */
"24 24 7 1 ",
"  c #000001",
". c #474748",
"X c #555556",
"o c #1C1C1D",
"O c #D5D5D5",
"+ c white",
"@ c gray69",
/* pixels */
"  .XXXXXXXXXXXXXXXXXXXX ",
"oXO++++++++++++++++++++ ",
"X+@@@@@@@@@@@@@@@@@@@@@ ",
"X+@@@@@@@@@@@@@@@@@@@@@ ",
"X+@@@@@@@@@@@@@@@@@@@@@ ",
"X+@@@@@@@@@@@@@@@@@@@@@ ",
"X+@@@@@@@@@@@@@@@@@@@@@ ",
"                        ",
"XXXXXXX   .XXXXXXXXXXXXX",
"+++++++ oXO+++++++++++++",
"@@@@@@@ X+@@@@@@@@@@@@@@",
"@@@@@@@ X+@@@@@@@@@@@@@@",
"@@@@@@@ X+@@@@@@@@@@@@@@",
"@@@@@@@ X+@@@@@@@@@@@@@@",
"@@@@@@@ X+@@@@@@@@@@@@@@",
"                        ",
"XXXXXXXXXXXXX   .XXXXXXX",
"+++++++++++++ oXO+++++++",
"@@@@@@@@@@@@@ X+@@@@@@@@",
"@@@@@@@@@@@@@ X+@@@@@@@@",
"@@@@@@@@@@@@@ X+@@@@@@@@",
"@@@@@@@@@@@@@ X+@@@@@@@@",
"@@@@@@@@@@@@@ X+@@@@@@@@",
"                        "
};
